<?xml version="1.0" encoding="UTF-8" standalone="no"?>
<!-- Created with Inkscape (http://www.inkscape.org/) -->

<svg
   xmlns:dc="http://purl.org/dc/elements/1.1/"
   xmlns:cc="http://creativecommons.org/ns#"
   xmlns:rdf="http://www.w3.org/1999/02/22-rdf-syntax-ns#"
   xmlns:svg="http://www.w3.org/2000/svg"
   xmlns="http://www.w3.org/2000/svg"
   version="1.1"
   width="512"
   height="512"
   id="svg2">
  <defs
     id="defs4" />
  <metadata
     id="metadata7">
    <rdf:RDF>
      <cc:Work
         rdf:about="">
        <dc:format>image/svg+xml</dc:format>
        <dc:type
           rdf:resource="http://purl.org/dc/dcmitype/StillImage" />
        <dc:title></dc:title>
      </cc:Work>
    </rdf:RDF>
  </metadata>
  <g
     transform="translate(0,-540.36218)"
     id="layer1">
    <path
       d="m 491.42857,260.57144 a 237.14285,251.42857 0 1 1 -474.285702,0 237.14285,251.42857 0 1 1 474.285702,0 z"
       transform="matrix(1.0795181,0,0,1.0181818,-18.506036,531.05307)"
       id="path2985"
       style="fill:#000000;fill-opacity:1;stroke:none" />
    <g
       id="text2987"
       style="font-size:560.53601074px;font-style:normal;font-variant:normal;font-weight:normal;font-stretch:normal;text-align:center;line-height:125%;writing-mode:lr-tb;text-anchor:middle;fill:#ffffff;fill-opacity:1;stroke:none;font-family:Constantia;-inkscape-font-specification:Constantia">
      <path
         d="m 181.2801,680.45055 0,223.06486 c -1.2e-4,10.94805 0.0455,20.89244 0.13685,29.83322 0.0911,8.94089 0.22796,17.06062 0.41055,24.35923 0.18235,4.74415 2.5544,7.84607 7.11618,9.30577 l 30.38062,9.57948 0.82109,11.76906 c -21.71361,-0.54739 -43.42706,-0.82109 -65.14041,-0.82109 -22.07848,0 -44.70426,0.2737 -67.877408,0.82109 l -1.094797,-11.76906 33.665005,-10.12687 c 4.74405,-1.45971 7.20734,-4.28793 7.38988,-8.48468 0.1824,-7.29861 0.31925,-15.46396 0.41055,-24.49608 0.0912,-9.03201 0.13678,-19.02202 0.13685,-29.97007 l 0,-221.97007 c -7e-5,-9.30545 -0.0457,-17.69889 -0.13685,-25.18032 -0.0913,-7.48078 -0.22815,-14.23202 -0.41055,-20.25375 -0.18254,-4.74376 -2.37213,-7.84568 -6.56878,-9.30577 L 86.580173,616.13123 86.032775,604.36216 c 23.538085,0.73025 46.163865,1.09518 67.877405,1.0948 21.71336,3.8e-4 43.33558,-0.36455 64.86672,-1.0948 l 1.36849,11.76907 -31.20171,9.57947 c -4.37931,1.09516 -6.75137,3.92338 -7.11618,8.48468 -0.18259,6.56913 -0.31943,13.6853 -0.41055,21.34854 -0.0914,7.6639 -0.13697,15.9661 -0.13685,24.90663 z m 7.11618,113.31148 110.30079,-122.89096 c 8.57566,-9.67038 15.50937,-17.83573 20.80114,-24.49608 5.29126,-6.65966 7.93701,-11.99679 7.93728,-16.0114 -2.7e-4,-3.64896 -2.46356,-6.11225 -7.38988,-7.38988 l -22.44333,-6.02138 -0.5474,-12.59017 c 18.06389,0.73025 38.22638,1.09518 60.48753,1.0948 21.34822,3.8e-4 41.41947,-0.36455 60.21382,-1.0948 l 1.0948,11.76907 -27.64362,8.75837 c -8.39377,2.73736 -15.64679,6.93407 -21.75909,12.59017 -6.11292,5.65679 -12.63608,12.3168 -19.56949,19.98004 L 240.39914,777.88747 364.93228,942.10701 c 5.29121,6.93375 10.49149,12.54458 15.60086,16.8325 5.10873,4.28798 11.76873,7.61798 19.98004,9.99002 l 24.90663,7.66358 0.5474,11.76906 c -15.32751,-0.54739 -34.76013,-0.82109 -58.29793,-0.82109 -6.20415,0 -12.49923,0.0456 -18.88525,0.13685 -6.3866,0.0912 -12.77291,0.22808 -19.15895,0.41055 -6.38657,-13.13756 -23.26468,-37.86169 -50.63435,-74.17249 z"
         id="path2986" />
    </g>
  </g>
</svg>
