<?xml version="1.0" encoding="UTF-8" standalone="no"?>
<!-- Created with Inkscape (http://www.inkscape.org/) -->

<svg
   xmlns:dc="http://purl.org/dc/elements/1.1/"
   xmlns:cc="http://creativecommons.org/ns#"
   xmlns:rdf="http://www.w3.org/1999/02/22-rdf-syntax-ns#"
   xmlns:svg="http://www.w3.org/2000/svg"
   xmlns="http://www.w3.org/2000/svg"
   version="1.1"
   width="512"
   height="512"
   id="svg2">
  <defs
     id="defs4" />
  <metadata
     id="metadata7">
    <rdf:RDF>
      <cc:Work
         rdf:about="">
        <dc:format>image/svg+xml</dc:format>
        <dc:type
           rdf:resource="http://purl.org/dc/dcmitype/StillImage" />
        <dc:title></dc:title>
      </cc:Work>
    </rdf:RDF>
  </metadata>
  <path
     d="m 243.5625,1.5 c -0.17663,-0.1146916 -0.31401,0.5531125 -0.25,1.53125 -0.58408,23.61824 0.20462,47.25365 0.0625,70.875 -0.1088,4.71505 0.12293,9.48366 -0.40625,14.15625 C 240.60869,80.75913 238.695,73.30015 236.3125,66 c -0.3442,-0.90036 -2.08775,-6.78059 -2.09375,-3.6875 1.61949,24.65581 4.39363,49.21109 6.3125,73.84375 -0.03,0.85606 0.57793,5.00852 0.0312,3.78125 -4.42769,-16.46539 -8.18983,-33.08972 -12.34375,-49.625 -2.25873,-8.64739 -4.18111,-17.42684 -7.125,-25.875 -1.19734,-2.7269 -0.67517,1.08595 -0.4375,2.0625 4.42994,25.06808 9.93396,49.91797 14.78125,74.90625 1.12419,6.2976 2.64525,12.55624 3.1875,18.9375 -0.96784,3.93115 -3.51574,-0.54104 -3.90625,-2.4375 -3.50937,-9.81497 -5.85392,-19.97146 -9.09375,-29.875 -1.56335,-4.65394 -3.4226,-9.24375 -4.78125,-13.96875 -0.18286,-0.8375 -1.94233,-5.38582 -1.40625,-2.4375 3.02266,12.82784 6.62875,25.51786 10.25,38.1875 0.83819,3.18706 2.11261,6.36686 2.3125,9.65625 -2.69758,-2.66183 -4.07713,-6.49836 -6.875,-9.125 -2.11102,-1.35105 -2.39542,-4.30505 -3.53125,-6.40625 -9.22151,-24.00171 -17.32881,-48.41382 -26.0625,-72.59375 -3.17947,-8.29116 -6.35325,-16.59418 -9.5625,-24.875 -0.77193,-1.57879 -1.73518,-5.08808 -2.625,-5.40625 1.34598,5.76911 3.16402,11.42677 4.78125,17.125 6.13943,21.33954 13.20406,42.3858 19.46875,63.6875 0.005,0.71467 1.6159,4.13795 0.65625,3.375 -3.80101,-5.15785 -7.16689,-10.61368 -10.53125,-16.0625 -0.92811,-1.07998 -2.53032,-6.1693 -3.46875,-2.9375 0.85114,4.14605 2.93396,7.88948 4.53125,11.78125 7.14204,16.92444 13.65634,34.12343 20.375,51.21875 l -1.4375,0 c -7.91967,-14.82066 -15.76717,-29.67009 -23.84375,-44.40625 -8.7411,-15.58809 -17.34897,-31.25082 -25.5625,-47.125 -1.43415,-1.93946 -1.56806,-5.06894 -3.90625,-6.125 -0.39494,1.8027 1.35767,4.13869 2.03125,6.03125 4.99799,10.02398 10.31188,19.89839 15.34375,29.90625 5.68897,11.33848 11.64785,22.54606 16.90625,34.09375 0.97261,2.4118 2.5876,5.49977 0.53125,7.8125 -1.30951,1.99012 -3.85743,1.95054 -5.75,2.90625 -0.78865,2.50503 1.07569,5.11873 1.46875,7.625 0.45994,2.35527 1.82546,5.08356 1.59375,7.28125 -2.61316,-2.4372 -4.69933,-5.36675 -7.15625,-7.96875 -9.65636,-11.152 -18.61215,-22.93486 -28.625,-33.78125 -0.79799,-0.66283 -3.43037,-4.16765 -3.28125,-2.4375 2.67266,5.696 6.03164,11.03968 9.25,16.4375 2.23481,3.86736 4.97418,7.47639 6.90625,11.5 -6.0996,-5.9968 -11.97099,-12.21357 -17.9375,-18.34375 -13.09696,-13.50164 -25.94278,-27.26738 -39.5,-40.3125 -1.67826,-1.83677 -0.79275,0.52228 0.0937,1.3125 6.08386,6.7344 11.51801,14.01046 17.5625,20.78125 10.88796,12.06401 21.37733,24.48539 32,36.78125 3.19487,3.87642 6.86609,7.37197 9.78125,11.46875 2.43364,3.41598 -4.17555,1.14934 -3.46875,3.9375 3.57064,6.1396 8.28262,11.50746 12.34375,17.3125 1.30158,1.56699 -0.26075,1.10071 -1.0625,0.15625 -9.85053,-8.49395 -19.26927,-17.43925 -29.0625,-26 -9.46418,-8.51293 -19.52979,-16.33142 -29.84375,-23.78125 -10.10967,-7.30515 -20.13778,-14.77209 -30.6875,-21.4375 -2.98474,-1.73603 0.584344,1.68928 1.46875,2.4375 7.74919,7.0481 15.83478,13.74217 23.59375,20.78125 9.91265,9.05626 20.18961,17.65769 30.125,26.6875 9.19711,8.79746 19.29674,16.61448 28.46875,25.4375 -3.08062,-1.82673 -6.20888,-3.71463 -9.75,-4.5 -4.28675,-0.5655 -7.86643,-3.15629 -11.34375,-5.53125 -15.1575,-11.1518 -29.99663,-22.72924 -45.5,-33.40625 -12.866723,-8.9953 -26.628675,-16.65 -40.53125,-23.90625 -5.848623,-3.01331 -11.502849,-6.38052 -17.40625,-9.28125 -2.741667,-1.28877 -0.01953,1.03943 1,1.71875 16.810653,12.89708 34.119391,25.13438 51.34375,37.46875 6.77637,4.7355 13.28593,9.7826 19.9375,14.6875 11.05498,8.19812 22.43688,15.9482 33.4375,24.21875 4.96436,4.36067 10.95484,7.43453 15.84375,11.875 -1.04367,0.70475 -2.93735,-1.08163 -4.3125,-1.25 -2.736,-0.29761 -5.19858,-1.5803 -7.625,-2.8125 -6.84678,-3.73831 -13.73783,-7.33471 -20.84375,-10.5625 -13.28883,-6.02924 -26.78158,-11.62421 -40.21875,-17.3125 -13.110436,-5.60948 -26.557034,-10.40857 -39.90625,-15.40625 -1.380291,-0.29476 -5.051705,-2.23139 -5.1875,-1.03125 5.64287,5.62186 11.847091,10.62836 17.75,15.96875 0.406005,0.41798 3.854503,3.26751 1.96875,2.375 -4.840833,-2.02653 -10.04139,-3.03067 -15.03125,-4.625 -8.624635,-2.64915 -17.358838,-4.8664 -26.03125,-7.34375 -1.375675,-0.85129 -2.961817,-0.64275 -1.09375,0.8125 5.754263,3.34431 11.90645,5.95191 17.9375,8.75 21.298909,9.34919 42.501578,18.89826 63.6875,28.5 13.93483,6.34065 28.04452,12.27783 42.03125,18.5 1.36649,0.78556 6.92444,2.50078 3.3125,3.84375 -3.11299,0.30862 -6.12273,-1.03664 -9.09375,-1.78125 -16.22476,-5.13181 -32.25035,-10.8496 -48.34375,-16.375 -18.076768,-6.51576 -36.292138,-12.67629 -54.59375,-18.53125 -2.055144,-0.50565 -4.988774,-1.86119 -6.53125,-1.71875 4.41751,3.50007 9.431193,6.18185 14.1875,9.1875 3.809367,2.18161 7.319048,4.90916 11.3125,6.75 13.577542,5.73751 27.804377,9.66273 41.75,14.375 12.71738,4.24937 25.55645,8.25541 38.03125,13.1875 2.7199,0.68517 4.04054,3.27239 6.5,4.4375 2.04523,1.4258 5.1004,2.15702 6.5625,4 -2.51186,-0.23325 -4.82787,-1.38323 -7.28125,-1.9375 -22.10236,-5.55174 -44.30733,-10.69741 -66.5,-15.875 -21.087086,-4.82253 -42.13031,-9.79597 -63.3125,-14.1875 -2.222778,-0.61844 -0.635522,0.54498 0.5625,0.75 22.800071,6.05215 45.607231,12.10313 68.375,18.28125 14.80409,4.19971 29.73057,7.91509 44.53125,12.125 1.70892,0.64707 5.32991,1.28086 5.8125,2.15625 -5.21146,-0.22723 -10.36788,-1.20234 -15.53125,-1.90625 C 96.681894,228.09414 65.927902,223.49934 35.15625,219 27.857526,218.02934 20.59308,216.67046 13.25,216.09375 c -1.768616,-0.24029 -1.078543,0.5854 0.21875,0.8125 16.465645,5.39931 33.306534,9.61046 49.90625,14.5625 0.684149,0.34616 4.301154,1.03089 3.03125,1.34375 -17.442954,0.42569 -34.867098,-0.2799 -52.3125,-0.1875 -3.869946,0.10877 -7.8424413,-0.16563 -11.65625,0.375 2.6300332,0.61712 5.3530367,0.87958 8.03125,1.28125 37.51416,4.89663 75.154484,8.84752 112.6875,13.59375 8.30335,1.13928 16.64449,2.08722 24.9375,3.28125 1.86247,0.006 2.26756,1.5375 0.0937,1.5 -6.16601,0.7683 -12.46561,-0.0994 -18.5625,1.34375 -1.86512,0.0437 -1.88806,1.77325 0,1.84375 4.3572,0.97591 8.82522,1.30406 13.1875,2.28125 2.15643,0.60164 5.08471,0.70777 6.625,2.0625 -2.94862,1.01088 -6.05358,1.49508 -9.09375,2.15625 -2.05138,0.64621 -4.97236,0.62531 -6.34375,2.15625 3.15164,0.9566 6.5998,0.0811 9.8125,0.75 -2.22478,0.76391 -4.81382,0.73201 -7.1875,1.0625 -29.02744,2.62625 -58.111879,4.35798 -87.15625,6.78125 -0.776293,0.0843 -4.560891,0.28353 -2.9375,0.65625 9.70385,0.15836 19.395486,-0.36613 29.09375,-0.65625 25.29331,-0.86977 50.57434,-2.23193 75.875,-2.875 0.91252,-0.0119 5.63127,-0.16435 2.71875,0.625 -3.04093,1.1346 1.0624,2.62986 2.53125,2.28125 1.75519,0.35389 5.57584,-0.38782 6.1875,1.0625 -3.11861,1.31244 -6.52707,1.69825 -9.8125,2.4375 -22.40439,4.20601 -44.90753,7.78217 -67.34375,11.8125 -26.039599,4.79698 -52.191085,9.12429 -78.25,13.8125 -1.9543274,0.58461 -5.1362315,0.49211 -6.34375,1.59375 3.5751732,0.0839 7.1380014,-0.59917 10.6875,-0.96875 50.034651,-6.61824 100.10457,-12.98385 150.09375,-19.9375 0.83831,-0.10071 5.52213,-0.61193 3.125,0.75 -4.77989,1.99857 -9.85577,3.1215 -14.71875,4.90625 -11.25419,3.9391 -22.61067,8.01259 -32.78125,14.34375 -1.14403,0.90485 -4.49916,2.36866 -4.1875,3.1875 7.33347,-1.22265 14.54655,-3.11682 21.78125,-4.8125 6.14598,-1.38194 12.2683,-3.04703 18.5,-3.96875 -2.51432,1.65467 -5.50018,2.60737 -8.25,3.84375 -24.91912,9.98252 -49.434794,20.88077 -74.21875,31.1875 -12.482815,5.27544 -25.213666,10.02111 -37.5,15.75 -1.086072,0.33558 -5.24019,2.82011 -2.15625,2.4375 11.343727,-2.07899 22.543993,-4.85159 33.75,-7.5625 14.555933,-4.046 28.77763,-9.17136 43.03125,-14.15625 6.98929,-2.37655 13.82878,-5.20552 20.90625,-7.3125 2.75681,-0.851 -0.0907,1.12335 -1.0625,1.6875 -9.83544,6.19994 -19.95598,11.90318 -29.875,17.96875 -14.49553,8.70013 -28.859654,17.67116 -42.21875,28.0625 -7.93203,6.16869 -16.132269,12.03465 -23.59375,18.78125 6.566227,-2.98307 13.099713,-6.01687 19.46875,-9.40625 19.410186,-10.1986 38.914294,-20.23851 58.4375,-30.21875 15.57903,-7.85931 30.75036,-16.57826 46.96875,-23.09375 0.75492,-0.29519 4.76124,-1.88052 2.9375,-0.28125 -11.70969,9.20964 -23.88597,17.82688 -35.625,27 -10.34821,8.30263 -21.43722,15.60862 -31.90625,23.75 -7.498351,6.38038 -15.583359,11.99668 -23.46875,17.875 -1.669414,1.5045 -5.264786,3.52957 -5.6875,4.9375 5.226221,-1.29641 10.306757,-3.09387 15.40625,-4.8125 12.121398,-4.01721 22.96234,-10.94513 33.625,-17.8125 10.41853,-6.88594 21.00342,-13.52319 31.8125,-19.78125 4.37918,-2.44419 8.60421,-5.21353 13.21875,-7.1875 -4.46137,5.04417 -9.23267,9.80592 -13.875,14.6875 -14.82506,15.45008 -30.05582,30.52664 -44.59375,46.25 -0.495022,0.6066 -3.453629,3.64612 -1.59375,2.65625 7.29383,-5.74536 14.02833,-12.15967 21.03125,-18.25 7.97806,-7.18352 16.33121,-13.91581 24.3125,-21.09375 8.02195,-7.67212 16.61368,-14.74321 25.03125,-21.96875 6.1493,-5.18614 11.82888,-10.87395 18,-16.03125 1.56987,-2.60774 5.19827,-0.0485 4.0625,2.40625 -2.26831,6.10939 -6.22646,11.40126 -9.90625,16.71875 -3.80763,5.52654 -8.32184,10.51458 -12.5,15.75 -9.33854,12.03407 -18.54531,24.16744 -28.0625,36.0625 -9.10231,11.63123 -18.44362,23.09489 -27.0625,35.09375 -0.37828,0.77407 -2.8963,3.68413 -1.46875,3.5 7.7658,-6.09432 14.6995,-13.18454 22.28125,-19.5 1.81792,-1.31227 3.55991,-3.45443 5.625,-4 -2.94732,6.20431 -5.58962,12.5728 -7.9375,19.03125 -0.14441,1.24334 -2.27248,4.5298 -0.71875,4.625 2.99581,-2.98612 5.28336,-6.6137 7.84375,-9.96875 16.08514,-22.2987 32.12023,-44.62117 48.09375,-67 1.47706,-1.20946 2.25786,-5.18943 4.3125,-4.4375 0.3297,2.04662 3.58463,1.85321 3.125,3.75 -1.4801,4.28093 -3.86813,8.15589 -5.84375,12.21875 4.75077,-4.92294 9.30026,-10.05766 14.28125,-14.75 2.38556,-2.7911 1.3885,2.15783 2.65625,1.75 2.37403,-2.65782 4.40635,-5.61942 6.8125,-8.25 l 0.40625,0 0,-0.4375 c 0.23667,-0.25069 0.47409,-0.50655 0.71875,-0.75 -1.37944,3.50291 -3.13261,6.9568 -4.65625,10.4375 -8.45973,18.05157 -17.08126,36.04308 -24.78125,54.4375 -0.19556,0.66614 -2.22682,4.81187 -0.53125,2.8125 5.08549,-6.84133 9.67903,-14.04344 14.125,-21.3125 1.54662,-2.3871 2.66578,-5.1973 4.71875,-7.15625 -0.45939,3.25369 -2.05935,6.22364 -3.0625,9.34375 -7.88386,22.95451 -15.21343,46.10751 -22.71875,69.1875 -1.49379,3.3476 3.05185,1.40455 4.71875,1.09375 4.34112,-0.9709 6.67091,-5.11895 8.84375,-8.59375 6.21292,-10.47997 11.81277,-21.38546 19.1875,-31.125 3.86645,-3.99797 6.21103,-9.11166 8.15625,-14.25 5.25275,-14.21621 10.68881,-28.36113 15.8125,-42.625 0.39287,-1.63294 0.38482,0.338 0.53125,1.03125 0.56892,3.12401 0.40098,6.65768 2.46875,9.25 1.66748,2.02079 4.85559,0.44351 4.46875,-2.09375 0.90137,-2.94318 2.36126,-5.68258 3.65625,-8.46875 1.07758,-1.387 1.92296,-5.62311 3.84375,-4.8125 0.24755,2.96765 -0.10087,5.93504 -0.21875,8.90625 -0.90972,16.9301 -3.44125,33.77313 -3.40625,50.75 0.19525,13.67053 0.81294,27.33145 1.78125,40.96875 0.13482,1.1077 0.25845,6.6466 1.21875,3.625 0.56132,-11.2429 1.46475,-22.4621 2.34375,-33.6875 2.05454,-25.59837 3.7254,-51.24299 6.125,-76.8125 0.53247,-3.76265 0.49436,-7.70608 2,-11.25 1.68086,0.20062 1.81253,4.24966 2.0625,6.0625 1.22464,17.42899 0.25911,34.94487 1.5,52.375 0.27569,1.06586 -0.0154,4.98262 1.15625,4.1875 1.93792,-9.36469 2.43803,-18.97444 4.375,-28.34375 0.8459,-5.0238 3.07956,-9.60735 5.125,-14.21875 4.55014,42.65237 9.17197,85.3051 13.90625,127.9375 0.5168,2.3293 -0.4844,5.8397 2.78125,6.25 0.69071,0.2698 1.39974,0.44655 2.125,0.59375 1.96283,0.1469 6.23823,1.6089 6.125,-1.5625 -0.95081,-14.4688 -1.68676,-28.9563 -2.4375,-43.4375 -0.35534,-8.6834 -1.10125,-17.36806 -1.03125,-26.0625 1.82699,3.94612 3.63697,7.91094 5.28125,11.9375 3.16517,8.25757 7.13767,16.1892 11.71875,23.75 1.97471,3.0359 3.67367,6.38955 6.4375,8.78125 1.27123,-1.0433 -0.62546,-4.1218 -0.625,-5.875 -2.59289,-11.7148 -5.79091,-23.2723 -8.1875,-35.03125 -5.15262,-24.64601 -10.57837,-49.25661 -15.5625,-73.9375 -0.18305,-0.94322 -1.11746,-5.51455 -0.125,-2.75 8.70097,24.71673 16.66862,49.67868 25.15625,74.46875 5.45563,15.68702 10.89694,31.3703 16.15625,47.125 1.29376,3.5722 2.25908,7.30205 3.75,10.78125 1.11739,-0.4627 -0.2665,-3.6303 -0.25,-5.0625 -4.05893,-19.9935 -8.58683,-39.92067 -12.6875,-59.90625 0.46051,-1.05664 3.16132,2.0651 4.3125,2.65625 0.93496,0.50894 4.40118,3.89274 3.875,1.375 -3.46788,-11.8436 -7.61567,-23.45661 -11.625,-35.125 -4.32656,-12.64978 -9.15068,-25.12041 -13.53125,-37.75 0.54301,-1.33241 2.69312,0.2703 4.08144,0.3286 1.91548,-0.33898 0.41067,-2.38738 0.26231,-3.8911 -0.0615,-0.7226 -1.97858,-4.7575 -0.5625,-3.0625 4.8794,8.00809 9.1176,16.40282 13.5625,24.65625 10.60493,20.09214 21.04242,40.27874 31.875,60.25 3.91361,7.1336 7.26474,14.55617 11.40625,21.5625 1.19212,2.0637 0.63289,-0.3116 0.15625,-1.25 -6.11869,-15.9942 -12.86675,-31.72306 -19.59375,-47.46875 -3.02471,-7.26754 -6.49814,-14.36008 -9.375,-21.6875 -1.14457,-5.13516 -14.39861,-32.91292 -7.09375,-30.71875 5.63242,8.42173 11.58506,16.63316 17.8125,24.625 7.10833,9.0475 13.6645,18.50845 20.46875,27.78125 12.01435,16.06837 23.90453,32.19853 35.6875,48.4375 1.21516,1.3973 2.57983,4.19225 4.28125,4.28125 -0.28137,-4.0475 -1.53811,-7.94832 -2.5,-11.875 -1.3573,-4.33373 -2.15448,-9.01308 -4.78125,-12.8125 -13.68054,-20.07204 -28.41519,-39.40809 -42.59375,-59.125 -7.15811,-10.48391 -14.8632,-20.58243 -22.5,-30.71875 14.187,5.34632 43.76816,43.69359 54.21875,55.375 0.53434,0.60847 1.08042,1.21317 1.625,1.8125 1.63149,1.52303 3.56306,4.40546 5.28125,4.84375 -1.3309,-2.71778 -3.31293,-5.07537 -5.0625,-7.53125 -14.06524,-18.4969 -28.73679,-36.52985 -43.1562,-54.75 18.01609,9.28805 38.06119,29.17946 52.5625,40.90625 7.66874,6.12117 15.01746,12.61037 22.84375,18.53125 7.46927,5.74522 16.6973,8.28912 24.96875,12.5625 1.0633,0.63165 2.31495,1.04755 3.5625,0.96875 0.3649,-1.46626 -3.05075,-3.22088 -4.125,-4.75 -20.59569,-19.3585 -41.43556,-38.4517 -62,-57.84375 -10.71146,-9.83231 -21.2599,-19.84797 -31.90625,-29.75 -6.56346,-6.19618 -13.51511,-11.97196 -19.96875,-18.28125 -1.57768,-1.7694 0.62156,-0.93157 1.40625,-0.15625 25.92998,16.99552 51.42537,34.67764 77.53125,51.40625 0.77781,0.24632 3.56982,2.7649 3.09375,1.3125 -3.93284,-6.3113 -8.57811,-12.14584 -13.03125,-18.09375 -5.27857,-7.33187 -11.68368,-13.75872 -18.5,-19.65625 -1.25991,-1.4327 -4.43185,-3.52385 -4.40625,-4.8125 9.05315,2.37327 17.66401,6.2687 26.71875,8.625 -0.91664,-1.05914 -2.65763,-1.7656 -3.9375,-2.59375 -15.87225,-8.69047 -32.09147,-16.75673 -47.78125,-25.78125 -1.73076,-1.37897 -4.88652,-2.23244 -5.4375,-4.4375 2.50796,-1.75714 -4.68273,-4.2175 -1.0625,-4.1875 6.94308,1.78605 13.59507,4.54623 20.34375,6.9375 25.99125,9.45311 51.99492,18.87926 78.09375,28.03125 0.34166,-0.87751 -1.66305,-2.85172 -2.28125,-4 -1.95418,-2.38209 -3.51164,-5.31778 -6.21875,-6.9375 -6.67987,-3.37224 -13.77299,-5.83689 -20.71875,-8.59375 -18.5949,-7.22168 -37.46774,-13.73813 -55.875,-21.4375 -2.386,-0.5882 -3.96564,-2.76209 -6.375,-3.125 1.13755,-0.90786 3.89385,0.3833 5.59375,0.4375 10.16633,2.01634 20.2473,4.49182 30.5,6.0625 37.07226,5.99487 74.45382,9.75275 111.65625,14.8125 2.03921,-0.015 4.5402,1.37035 6.28125,0.4375 -1.67679,-2.01296 -4.34225,-2.9423 -6.5625,-4.25 -11.46431,-5.69079 -23.29458,-10.56411 -34.65625,-16.46875 -1.3195,-1.00154 -5.99921,-2.25537 -3.96875,-4.09375 5.52724,-1.63539 11.40389,-1.68331 17.03125,-2.875 2.95037,0.1043 4.88338,-2.68291 2.75,-5.0625 -1.28197,-2.207 -2.86469,-5.01476 -5.71875,-5.1875 -18.30875,-2.66888 -36.72687,-4.71586 -55.09375,-6.9375 -22.46397,-2.55161 -44.89193,-5.37692 -67.4375,-7.125 12.1359,-1.05463 24.31,-1.79846 36.46875,-2.53125 19.19372,-1.23194 38.41727,-2.0128 57.59375,-3.5 3.25685,-0.44415 6.78167,-0.34565 9.6875,-2.0625 1.62541,-1.85015 2.53344,-4.30433 3.46875,-6.5625 -8.44877,-0.57152 -16.89311,-1.05093 -25.34375,-1.59375 -8.98115,-0.69057 -18.00306,-1.23063 -26.875,-2.84375 -6.48715,-1.87568 -13.26844,-1.01633 -19.875,-0.5 -8.69914,0.67441 -17.3884,1.85234 -26.125,1.75 -2.05887,0.16046 -1.09379,-1.19582 0.28125,-1.375 8.8871,-2.83459 18.08776,-4.51705 27.15625,-6.65625 19.07063,-4.37843 38.198,-8.56027 57.09375,-13.65625 1.08028,-0.29224 6.90951,-1.86825 3.71875,-1.90625 -23.12413,3.68986 -46.1893,7.68324 -69.25,11.75 -5.01033,0.83503 -10.02715,1.92353 -15.03125,2.5625 2.46029,-1.5355 5.33755,-2.3518 8.03125,-3.4375 6.2262,-2.21311 12.34079,-4.70922 18.5,-7.09375 1.2093,-0.5761 5.72229,-1.85644 4.3125,-2.9375 -13.89078,2.82366 -27.54358,6.7546 -41.5,9.28125 -2.73593,0.65363 -5.52271,0.69262 -8.3125,0.5625 2.98999,-1.37945 6.0672,-2.63003 8.90625,-4.3125 3.96281,-2.84654 8.36696,-4.97285 12.71875,-7.15625 2.22562,-1.25409 4.76444,-2.23042 6.625,-3.96875 -4.65461,-0.23622 -9.24909,1.19546 -13.90625,1.34375 -3.45267,0.24253 1.14035,-1.96356 2.15625,-2.59375 8.38316,-4.4106 16.82392,-8.74492 25.125,-13.3125 7.17475,-3.81987 14.22186,-7.90683 21.3125,-11.875 2.0187,-1.30047 5.41155,-2.23629 6.40625,-4.15625 -4.78373,0.18782 -9.39102,1.74138 -14.09375,2.53125 -1.07226,-0.0776 -4.32169,1.45341 -4,0.0312 3.8138,-4.31522 8.65102,-7.53875 12.96875,-11.3125 1.64289,-1.6552 4.33079,-3.18973 5.15625,-5.15625 -3.60524,0.64791 -6.77664,2.75448 -10.09375,4.21875 -14.21764,6.75846 -28.39016,13.59994 -42.84375,19.84375 1.43639,-1.94258 3.02149,-3.80876 4.28125,-5.875 1.99473,-2.29414 -0.92188,-4.82429 -3.28125,-4.53125 -3.53348,0.65451 -6.51575,3.40622 -10.25,3.25 -1.54017,-1.50341 2.44233,-3.52554 3.4375,-4.84375 9.95781,-8.30693 19.87533,-16.65379 29.53125,-25.3125 6.76922,-6.04909 13.97568,-11.57514 20.875,-17.46875 8.6125,-7.95101 17.7145,-15.33955 26.6875,-22.875 4.68102,-4.09779 9.68462,-7.92392 13.71875,-12.6875 1.80424,-2.07863 -0.4917,-1.07472 -1.4375,-0.15625 -9.55956,7.17239 -18.96264,14.53562 -28.5625,21.65625 -16.14029,12.02954 -32.21,24.17106 -48.65625,35.78125 -2.29627,1.73435 -0.28837,-0.5325 0.5625,-1.375 14.37537,-14.93107 28.93556,-29.66957 43.15625,-44.75 3.94244,-4.31653 8.25186,-8.36569 11.46875,-13.28125 -3.32159,2.66949 -6.85108,5.13586 -9.75,8.28125 -11.42831,10.48827 -23.7107,19.99747 -35.15625,30.46875 -11.36954,9.70817 -22.71264,19.44575 -34,29.25 2.46337,-4.57372 5.2739,-8.96734 7.25,-13.78125 -1.6299,0.13085 -3.77582,2.28517 -5.5,3.34375 -3.13959,2.21727 -6.11996,4.89643 -9.71875,6.3125 -1.68859,1.30269 -3.94448,2.81108 -4.4375,4.875 l -6.96875,0 c 8.06245,-11.27563 16.30121,-22.4182 23.96875,-33.96875 0.68578,-0.93866 3.66989,-5.61296 0.96875,-3.59375 -2.77347,3.44288 -5.57504,6.90037 -8.46875,10.25 -4.19587,4.79402 -7.85697,10.05515 -12.46875,14.46875 -1.93447,2.21675 -5.25149,0.89303 -7.3125,2.875 -3.17106,2.73899 -5.70708,6.16263 -8.25,9.46875 -0.14604,0.17773 -0.15617,0.35301 -0.0937,0.5 l -5.125,0 c 0.36212,-0.22772 0.65948,-0.53469 0.84375,-1 5.1956,-11.05758 11.00883,-21.80936 16.625,-32.65625 5.80917,-11.28585 11.8841,-22.46078 17.375,-33.90625 0.93241,-1.84844 -0.58681,-0.31438 -0.9375,0.46875 -9.72297,15.65981 -18.37645,31.94054 -27.6875,47.84375 -1.24697,1.36506 -2.18362,6.24306 -4.4375,3.53125 -1.99822,-1.80441 -2.25197,-4.6124 -0.90625,-6.875 6.42782,-14.12256 12.81285,-28.27818 19.5,-42.28125 5.74732,-12.28948 12.10097,-24.31358 17.25,-36.875 -0.74932,0.95435 -1.52892,1.86795 -2.25,2.84375 -6.35884,10.51315 -11.7414,21.59312 -17.5625,32.40625 -5.61119,10.69009 -11.586,21.18842 -17.375,31.78125 -1.97993,4.44799 -4.42212,8.65977 -6.75,12.9375 l 0.5,-5.5625 c -0.0734,-1.25693 1.02461,-5.59057 -0.65625,-4.5625 -2.98784,5.34896 -4.9187,11.23455 -7.5,16.78125 -0.95867,1.5682 -1.87249,5.3336 -3.3125,5.3125 0.42146,-3.64267 1.11273,-7.27544 1.4375,-10.9375 1.37958,-8.24872 3.80081,-16.27717 5.96875,-24.34375 3.0278,-11.01468 6.53299,-21.88303 9.84375,-32.8125 1.90545,-5.96908 -0.0174,-12.14403 0.0312,-18.21875 0.0289,-14.90348 2.54634,-29.66083 3.21875,-44.53125 -0.16109,-1.24913 0.69249,-5.04242 -0.9375,-4.5 -0.86533,2.89218 -1.53252,5.82597 -2.28125,8.75 -8.85567,36.49042 -17.59499,73.02845 -26.78125,109.4375 -0.75885,3.97686 -2.98982,-3.15333 -4.59375,-0.21875 -1.83415,3.26415 -2.75688,6.93693 -4.03125,10.4375 -0.7992,1.85665 -1.48071,5.11144 -2.625,6.03125 0.23243,-5.6462 1.12166,-11.23107 1.75,-16.84375 1.41028,-12.2905 3.47285,-24.50165 4.40625,-36.84375 1.75263,-25.15592 0.80325,-50.47724 -1.90625,-75.53125 -0.90216,-7.50455 -1.46146,-15.06934 -2.875,-22.5 -0.17259,-2.14498 -1.1397,-0.71901 -1.1875,0.625 -2.58491,14.71606 -4.75766,29.51447 -7.03125,44.28125 -1.36017,9.68476 -3.21284,19.33735 -3.65625,29.125 -1.73905,25.28985 -2.71883,50.6243 -5,75.875 -0.37167,0.98472 0.0616,4.79203 -1.09375,4.125 C 259.84682,157.56988 259.79469,154.12454 259.5,150.75 256.72309,117.53878 252.87512,84.45559 249.40625,51.3125 247.60427,35.09862 246.30183,18.7939 243.875,2.65625 243.80507,1.909355 243.66848,1.568815 243.5625,1.5 z"
     id="path3040"
     style="fill:#000000" />
  <path
     d="m 221.04367,201.21454 0,120.82681 c -7e-5,5.93019 0.0246,11.31674 0.0741,16.15966 0.0493,4.84297 0.12336,9.24117 0.22217,13.19458 0.0987,2.56975 1.38233,4.24996 3.85096,5.04063 l 16.44066,5.18887 L 242.0759,368 c -11.75045,-0.29651 -23.50081,-0.44475 -35.25113,-0.44475 -11.94791,0 -24.19199,0.14824 -36.73228,0.44475 l -0.59249,-6.37491 18.21803,-5.48538 c 2.56727,-0.79067 3.90029,-2.32263 3.99908,-4.59587 0.0987,-3.95342 0.17276,-8.37631 0.22217,-13.26871 0.0494,-4.89234 0.074,-10.30359 0.0741,-16.23378 l 0,-120.23379 c -5e-5,-5.04045 -0.0247,-9.5869 -0.0741,-13.63934 -0.0494,-4.05209 -0.12347,-7.70901 -0.22217,-10.97079 -0.0988,-2.56954 -1.2837,-4.24974 -3.55473,-5.04062 L 169.79623,166.37491 169.5,160 c 12.73779,0.39555 24.98186,0.59322 36.73228,0.59302 11.75031,2e-4 23.45131,-0.19747 35.10302,-0.59302 l 0.74057,6.37491 -16.885,5.18888 c -2.36989,0.59321 -3.65354,2.12518 -3.85096,4.59587 -0.0989,3.55827 -0.17286,7.41287 -0.22218,11.56379 -0.0494,4.15128 -0.0741,8.64831 -0.0741,13.49109 z m 3.85097,61.37705 59.68993,-66.56594 c 4.64077,-5.23812 8.393,-9.66101 11.25667,-13.26869 2.86341,-3.60733 4.29515,-6.49828 4.29531,-8.67285 -1.6e-4,-1.97652 -1.33318,-3.3108 -3.99909,-4.00285 L 283.99212,166.81968 283.6959,160 c 9.77537,0.39555 20.68643,0.59322 32.7332,0.59302 11.55272,2e-4 22.41439,-0.19747 32.58507,-0.59302 l 0.59247,6.37491 -14.95954,4.74412 c -4.54232,1.48274 -8.46735,3.75595 -11.77505,6.81967 -3.30804,3.0641 -6.8381,6.67161 -10.59017,10.82252 l -59.24558,65.23166 67.39187,88.95224 c 2.86336,3.75579 5.67754,6.79498 8.4425,9.11761 2.7646,2.32265 6.36871,4.1264 10.81232,5.41126 l 13.47837,4.1511 0.29622,6.37491 c -8.29457,-0.29651 -18.81065,-0.44475 -31.54827,-0.44475 -3.35742,0 -6.76404,0.0247 -10.21988,0.0741 -3.45614,0.0494 -6.91213,0.12355 -10.36797,0.22239 -3.45614,-7.11618 -12.58982,-20.50841 -27.4011,-40.17676 z"
     id="path3072"
     style="font-size:280.13589478px;font-style:normal;font-variant:normal;font-weight:normal;font-stretch:normal;text-align:center;line-height:125%;writing-mode:lr-tb;text-anchor:middle;fill:#ffffff;fill-opacity:1;stroke:none;font-family:Constantia;-inkscape-font-specification:Constantia" />
</svg>
