<?xml version="1.0" encoding="UTF-8" standalone="no"?>
<!-- Created with Inkscape (http://www.inkscape.org/) -->

<svg
   xmlns:dc="http://purl.org/dc/elements/1.1/"
   xmlns:cc="http://creativecommons.org/ns#"
   xmlns:rdf="http://www.w3.org/1999/02/22-rdf-syntax-ns#"
   xmlns:svg="http://www.w3.org/2000/svg"
   xmlns="http://www.w3.org/2000/svg"
   version="1.1"
   width="512"
   height="512"
   id="svg2">
  <defs
     id="defs4" />
  <metadata
     id="metadata7">
    <rdf:RDF>
      <cc:Work
         rdf:about="">
        <dc:format>image/svg+xml</dc:format>
        <dc:type
           rdf:resource="http://purl.org/dc/dcmitype/StillImage" />
        <dc:title></dc:title>
      </cc:Work>
    </rdf:RDF>
  </metadata>
  <g
     transform="translate(0,-540.36218)"
     id="layer1">
    <path
       d="m 288.25,1051.331 c -3.26565,-0.4103 -2.27676,-3.9263 -2.79356,-6.2556 -4.73428,-42.6324 -9.35909,-85.27672 -13.90923,-127.92909 -2.04544,4.6114 -4.27334,9.19887 -5.11924,14.22267 -1.93697,9.36931 -2.41477,18.98064 -4.35269,28.34533 -1.17165,0.79512 -0.88972,-3.14233 -1.16541,-4.20819 -1.24089,-17.43013 -0.26467,-34.9357 -1.48931,-52.36469 -0.24997,-1.81284 -0.40706,-5.86967 -2.08792,-6.07029 -1.50564,3.54392 -1.44938,7.50443 -1.98185,11.26708 -2.3996,25.56951 -4.06791,51.20054 -6.12245,76.79891 -0.879,11.2254 -1.78277,22.45677 -2.34409,33.69967 -0.9603,3.0216 -1.09669,-2.5108 -1.23151,-3.6185 -0.96831,-13.6373 -1.58605,-27.30506 -1.7813,-40.97559 -0.035,-16.97687 2.4976,-33.81471 3.40732,-50.74481 0.11788,-2.97121 0.46183,-5.96137 0.21428,-8.92902 -1.92079,-0.81061 -2.76854,3.42933 -3.84612,4.81633 -1.29499,2.78617 -2.74878,5.53379 -3.65015,8.47697 0.38684,2.53726 -2.80341,4.11463 -4.47089,2.09384 -2.06777,-2.59232 -1.88914,-6.11953 -2.45806,-9.24354 -0.14643,-0.69325 -0.15708,-2.66805 -0.54995,-1.03511 -5.12369,14.26387 -10.54168,28.41937 -15.79443,42.63558 -1.94522,5.13834 -4.30844,10.24343 -8.17489,14.2414 -7.37473,9.73954 -12.96249,20.65208 -19.17541,31.13205 -2.17284,3.4748 -4.50265,7.609 -8.84377,8.5799 -1.6669,0.3108 -6.21534,2.2565 -4.72155,-1.0911 7.50532,-23.07999 14.83897,-46.21907 22.72283,-69.17358 1.00315,-3.12011 2.61084,-6.11821 3.07023,-9.3719 -2.05297,1.95895 -3.19088,4.782 -4.7375,7.1691 -4.44597,7.26906 -9.0138,14.4849 -14.09929,21.32623 -1.69557,1.99937 0.33271,-2.16273 0.52827,-2.82887 7.69999,-18.39442 16.32089,-36.38056 24.78062,-54.43213 1.52364,-3.4807 3.27453,-6.92618 4.65397,-10.42909 -2.91566,2.90131 -5.22056,6.35604 -7.956,9.41847 -1.26775,0.40783 -0.27531,-4.54272 -2.66087,-1.75162 -4.98099,4.69234 -9.51276,9.8374 -14.26353,14.76034 1.97562,-4.06286 4.37433,-7.94876 5.85443,-12.22969 0.45963,-1.89679 -2.81382,-1.69847 -3.14352,-3.74509 -2.05464,-0.75193 -2.82796,3.22858 -4.30502,4.43804 -15.97352,22.37883 -32.02029,44.70574 -48.10543,67.00444 -2.56039,3.35505 -4.83792,6.97887 -7.83373,9.96499 -1.55373,-0.0952 0.57766,-3.38183 0.72207,-4.62517 2.34788,-6.45845 4.9909,-12.81688 7.93822,-19.02119 -2.06509,0.54557 -3.82042,2.67205 -5.63834,3.98432 -7.58175,6.31546 -14.49867,13.40303 -22.26447,19.49735 -1.42755,0.18413 1.09052,-2.71745 1.4688,-3.49152 8.61888,-11.99886 17.95057,-23.46495 27.05288,-35.09618 9.51719,-11.89506 18.7323,-24.026 28.07084,-36.06007 4.17816,-5.23542 8.68836,-10.20838 12.49599,-15.73492 3.67979,-5.31749 7.6331,-10.61253 9.90141,-16.72192 1.13577,-2.45476 -2.47657,-5.01932 -4.04644,-2.41158 -6.17112,5.1573 -11.87742,10.84413 -18.02672,16.03027 -8.41757,7.22554 -16.98807,14.28375 -25.01002,21.95587 -7.98129,7.17794 -16.33854,13.92425 -24.3166,21.10777 -7.00292,6.09033 -13.75305,12.48964 -21.046884,18.235 -1.859879,0.98987 1.10475,-2.04417 1.599772,-2.65077 14.537932,-15.72336 29.759712,-30.79639 44.584772,-46.24647 4.64233,-4.88158 9.4318,-9.63928 13.89317,-14.68345 -4.61454,1.97397 -8.85796,4.74068 -13.23714,7.18487 -10.80908,6.25806 -21.38374,12.90721 -31.80227,19.79315 -10.66266,6.86737 -21.498885,13.79362 -33.620283,17.81083 -5.099493,1.71863 -10.190763,3.51057 -15.416984,4.80698 0.422714,-1.40793 4.020312,-3.44787 5.689726,-4.95237 7.885391,-5.87832 15.991732,-11.47239 23.490083,-17.85277 10.469028,-8.14138 21.558178,-15.45293 31.906388,-23.75556 11.73903,-9.17312 23.90046,-17.79211 35.61015,-27.00175 1.82374,-1.59927 -2.17059,-0.0263 -2.92551,0.26889 -16.21839,6.51549 -31.40357,15.24228 -46.9826,23.10159 -19.523206,9.98024 -39.017766,20.01624 -58.427952,30.21484 -6.369037,3.38938 -12.909111,6.43476 -19.475338,9.41783 7.461481,-6.7466 15.666363,-12.60262 23.598393,-18.77131 13.359096,-10.39134 27.718302,-19.38459 42.213832,-28.08472 9.919015,-6.06557 20.054815,-11.77611 29.890255,-17.97605 0.97178,-0.56415 3.81671,-2.51805 1.0599,-1.66705 -7.07747,2.10698 -13.92202,4.92056 -20.91131,7.29711 -14.25362,4.98489 -28.476783,10.12118 -43.032716,14.16718 -11.206007,2.71091 -22.412861,5.47702 -33.756588,7.55601 -3.08394,0.38261 1.079235,-2.10376 2.165307,-2.43934 12.286334,-5.72889 24.999951,-10.47284 37.482766,-15.74828 24.783956,-10.30673 49.320851,-21.20602 74.239971,-31.18854 2.74982,-1.23638 5.71588,-2.1802 8.2302,-3.83487 -6.2317,0.92172 -12.34079,2.59704 -18.48677,3.97898 -7.2347,1.69568 -14.44344,3.56935 -21.77691,4.792 -0.31166,-0.81884 3.03674,-2.26221 4.18077,-3.16706 10.17058,-6.33116 21.51299,-10.41579 32.76718,-14.35489 4.86298,-1.78475 9.95605,-2.91418 14.73594,-4.91275 2.39713,-1.36193 -2.30691,-0.84446 -3.14522,-0.74375 -49.98918,6.95365 -100.05936,13.31497 -150.094011,19.93321 -3.5494986,0.36958 -7.1032658,1.04446 -10.678439,0.9606 1.2075185,-1.10164 4.4056031,-1.00229 6.3599305,-1.5869 26.0589145,-4.68821 52.1848265,-8.99797 78.2244255,-13.79495 22.436224,-4.03033 44.951674,-7.61594 67.356064,-11.82195 3.28543,-0.73925 6.70533,-1.1419 9.82394,-2.45434 -0.61166,-1.45032 -4.44172,-0.70267 -6.19691,-1.05656 -1.46885,0.34861 -5.57141,-1.13504 -2.53048,-2.26964 2.91252,-0.78935 -1.8088,-0.64402 -2.72132,-0.63208 -25.30066,0.64307 -50.57662,2.01373 -75.86993,2.8835 -9.698264,0.29012 -19.400215,0.80843 -29.104065,0.65007 -1.623391,-0.37272 2.16805,-0.55859 2.944343,-0.64286 29.044371,-2.42327 58.142612,-4.17515 87.170052,-6.8014 2.37368,-0.33049 4.9417,-0.28854 7.16648,-1.05245 -3.2127,-0.66893 -6.64704,0.20508 -9.79868,-0.75152 1.37139,-1.53094 4.29068,-1.52068 6.34206,-2.16689 3.04017,-0.66117 6.14061,-1.14831 9.08923,-2.15919 -1.54029,-1.35473 -4.46192,-1.44815 -6.61835,-2.04979 -4.36228,-0.97719 -8.84138,-1.31365 -13.19858,-2.28956 -1.88806,-0.0705 -1.87112,-1.80271 -0.006,-1.8464 6.09689,-1.44318 12.4176,-0.58 18.58361,-1.3483 2.17381,0.0375 1.74513,-1.48829 -0.11734,-1.49449 -8.29301,-1.19403 -16.62917,-2.11768 -24.93252,-3.25696 -37.533016,-4.74623 -75.159358,-8.72626 -112.673518,-13.62289 -2.6782133,-0.40167 -5.4038393,-0.63882 -8.0338725,-1.25594 3.8138087,-0.54063 7.7700845,-0.29201 11.6400305,-0.40078 17.445402,-0.0924 34.892425,0.63264 52.335379,0.20695 1.269904,-0.31286 -2.371918,-1.01596 -3.056067,-1.36212 -16.599716,-4.95204 -33.422965,-9.16071 -49.88861,-14.56002 -1.297293,-0.2271 -1.978138,-1.04403 -0.209522,-0.80374 7.34308,0.57671 14.601609,1.94188 21.900333,2.91254 30.771652,4.49934 61.532031,9.07792 92.256387,13.89003 5.16337,0.70391 10.31273,1.67782 15.52419,1.90505 -0.48259,-0.87539 -4.09744,-1.48528 -5.80636,-2.13235 -14.80068,-4.20991 -29.7343,-7.93725 -44.538392,-12.13696 -22.767769,-6.17812 -45.574782,-12.21797 -68.374853,-18.27012 -1.198022,-0.20502 -2.803401,-1.3802 -0.580623,-0.76176 21.18219,4.39153 42.235793,9.38149 63.322879,14.20402 22.192669,5.17759 44.396319,10.32196 66.498679,15.8737 2.45338,0.55427 4.78498,1.70481 7.29684,1.93806 -1.4621,-1.84298 -4.52664,-2.59399 -6.57187,-4.01979 -2.45946,-1.16511 -3.79311,-3.75319 -6.51301,-4.43836 -12.4748,-4.93209 -25.29225,-8.93435 -38.00963,-13.18372 -13.945623,-4.71227 -28.183457,-8.64547 -41.760999,-14.38298 -3.993452,-1.84084 -7.510108,-4.55249 -11.319475,-6.7341 -4.756307,-3.00565 -9.750092,-5.6914 -14.167602,-9.19147 1.542476,-0.14244 4.465533,1.21318 6.520677,1.71883 18.301612,5.85496 36.507801,12.01067 54.584569,18.52643 16.0934,5.5254 32.12555,11.24406 48.35031,16.37587 2.97102,0.74461 5.97258,2.09218 9.08557,1.78356 3.61194,-1.34297 -1.92791,-3.05565 -3.2944,-3.84121 -13.98673,-6.22217 -28.10278,-12.15206 -42.03761,-18.49271 -21.185922,-9.60174 -42.385204,-19.17482 -63.684113,-28.52401 -6.03105,-2.79809 -12.190874,-5.38602 -17.945137,-8.73033 -1.868067,-1.45525 -0.283175,-1.66706 1.0925,-0.81577 8.672412,2.47735 17.422092,4.68469 26.046727,7.33384 4.98986,1.59433 10.18217,2.60811 15.023003,4.63464 1.885753,0.89251 -1.561774,-1.95225 -1.967779,-2.37023 -5.902909,-5.34039 -12.118823,-10.34487 -17.761693,-15.96673 0.135795,-1.20014 3.827418,0.7319 5.207709,1.02666 13.349216,4.99768 26.782147,9.78864 39.892583,15.39812 13.43717,5.68829 26.92096,11.27892 40.20979,17.30816 7.10592,3.22779 14.02104,6.84631 20.86782,10.58462 2.42642,1.2322 4.88618,2.5066 7.62218,2.80421 1.37515,0.16837 3.24148,1.9596 4.28515,1.25485 -4.88891,-4.44047 -10.85823,-7.51074 -15.82259,-11.87141 -11.00062,-8.27055 -22.37943,-16.02406 -33.43441,-24.22218 -6.65157,-4.9049 -13.18342,-9.96833 -19.95979,-14.70383 -17.224359,-12.33437 -34.527313,-24.57318 -51.337966,-37.47026 -1.019532,-0.67932 -3.725708,-3.00767 -0.984041,-1.7189 5.903401,2.90073 11.556453,6.29029 17.405076,9.3036 13.902575,7.25625 27.643658,14.89459 40.510381,23.88989 15.50337,10.67701 30.3599,22.25031 45.5174,33.40211 3.47732,2.37496 7.06008,4.98546 11.34683,5.55096 3.54112,0.78537 6.66164,2.64459 9.74226,4.47132 -9.17201,-8.82302 -19.27241,-16.61139 -28.46952,-25.40885 -9.93539,-9.02981 -20.2254,-17.66043 -30.13805,-26.71669 -7.75897,-7.03908 -15.83935,-13.71483 -23.588543,-20.76293 -0.884406,-0.74822 -4.436622,-4.18339 -1.451882,-2.44736 10.549725,6.66541 20.556315,14.14845 30.665985,21.4536 10.31396,7.44983 20.38817,15.24595 29.85235,23.75888 9.79323,8.56075 19.23166,17.52197 29.08219,26.01592 0.80175,0.94446 2.3551,1.41881 1.05352,-0.14818 -4.06113,-5.80504 -8.77878,-11.16861 -12.34942,-17.30821 -0.7068,-2.78816 5.91051,-0.53435 3.47687,-3.95033 -2.91516,-4.09678 -6.58742,-7.58757 -9.78229,-11.46399 -10.62267,-12.29586 -21.10397,-24.71592 -31.99193,-36.77993 -6.04449,-6.77079 -11.49147,-14.04807 -17.57533,-20.78247 -0.8865,-0.79022 -1.76426,-3.1716 -0.086,-1.33483 13.55722,13.04512 26.39276,26.81492 39.48972,40.31656 5.96651,6.13018 11.83899,12.35831 17.93859,18.35511 -1.93207,-4.02361 -4.67186,-7.62172 -6.90667,-11.48908 -3.21836,-5.39782 -6.57661,-10.74251 -9.24927,-16.43851 -0.14912,-1.73015 2.48989,1.76884 3.28788,2.43167 10.01285,10.84639 18.94514,22.62138 28.6015,33.77338 2.45692,2.602 4.57056,5.54978 7.18372,7.98698 0.23171,-2.19769 -1.14497,-4.93867 -1.60491,-7.29394 -0.39306,-2.50627 -2.25429,-5.12833 -1.46564,-7.63336 1.89257,-0.95571 4.4319,-0.92212 5.74141,-2.91224 2.05635,-2.31273 0.4464,-5.38116 -0.52621,-7.79296 -5.2584,-11.54769 -11.23103,-22.75377 -16.92,-34.09225 -5.03187,-10.00786 -10.31904,-19.88637 -15.31703,-29.91035 -0.67358,-1.89256 -2.42645,-4.21913 -2.03151,-6.02183 2.33819,1.05606 2.45136,4.1695 3.88551,6.10896 8.21353,15.87418 16.83523,31.53232 25.57633,47.12041 8.12135,14.81784 16.01089,29.76076 23.97527,44.66312 -8.36289,0.22389 -16.73947,0.15141 -25.08876,0.7049 -2.64699,-0.51973 -5.34894,2.13437 -2.35724,3.95999 5.21826,2.79991 11.17087,3.78055 16.50223,6.29493 2.88011,1.45421 2.39585,5.06217 2.53852,7.74881 0.56659,31.45557 0.34339,62.91932 0.25188,94.37809 -0.15642,18.10608 -0.01,36.22218 -0.69503,54.31875 -0.48367,2.35967 0.53499,6.0299 -2.22194,7.17782 -5.41165,2.5848 -11.44167,3.47203 -16.93185,5.82674 -0.64807,1.73485 0.57965,3.44932 1.08107,5.08997 20.68815,0 41.3763,0 62.06445,0 -0.16543,-1.70964 0.47798,-3.72718 -0.71659,-5.14831 -2.85877,-1.89079 -6.4475,-2.13905 -9.56417,-3.48705 -2.55004,-0.87328 -4.95553,-2.13254 -6.94413,-3.96492 -0.60692,-0.59923 -0.11744,-1.72146 -0.27511,-2.535 0.009,-43.11431 -0.0118,-86.2287 -0.0172,-129.34292 0.16001,-8.68406 -0.10848,-17.43166 1.15515,-26.04837 0.38588,-2.59657 1.50489,-5.67481 4.42182,-6.225 3.76309,-0.92596 7.75244,-1.57646 11.10602,-3.61045 1.31098,-1.1761 0.68713,-3.08787 0.83419,-4.63798 -11.19126,0 -22.38251,0 -33.57377,0 -6.82315,-17.34096 -13.40084,-34.78325 -20.64668,-51.95367 -1.59729,-3.89177 -3.68444,-7.66375 -4.53558,-11.8098 0.93843,-3.2318 2.5316,1.86497 3.45971,2.94495 3.36436,5.44882 6.73729,10.91122 10.5383,16.06907 0.95965,0.76295 -0.64399,-2.64725 -0.64907,-3.36192 -6.26469,-21.3017 -13.33604,-42.35635 -19.47547,-63.69589 -1.61723,-5.69823 -3.41634,-11.35461 -4.76232,-17.12372 0.88982,0.31817 1.84993,3.83176 2.62186,5.41055 3.20925,8.28082 6.36972,16.58192 9.54919,24.87308 8.73369,24.17993 16.84141,48.58932 26.06292,72.59103 1.13583,2.1012 1.41222,5.05283 3.52324,6.40388 2.79787,2.62664 4.18131,6.45035 6.87889,9.11218 -0.19989,-3.28939 -1.45627,-6.47038 -2.29446,-9.65744 -3.62125,-12.66964 -7.22709,-25.35376 -10.24975,-38.1816 -0.53608,-2.94832 1.22656,1.61923 1.40942,2.45673 1.35865,4.725 3.19918,9.2849 4.76253,13.93884 3.23983,9.90354 5.60545,20.07949 9.11482,29.89446 0.39051,1.89646 2.90854,6.37729 3.87638,2.44614 -0.54225,-6.38126 -2.04526,-12.64332 -3.16945,-18.94092 -4.84729,-24.98828 -10.34071,-49.85246 -14.77065,-74.92054 -0.23767,-0.97655 -0.76933,-4.77991 0.42801,-2.05301 2.94389,8.44816 4.87374,17.21003 7.13247,25.85742 4.15392,16.53528 7.91809,33.16989 12.34578,49.63528 0.54668,1.22727 -0.0745,-2.92632 -0.0445,-3.78238 -1.91887,-24.63266 -4.68853,-49.19581 -6.30802,-73.85162 0.006,-3.09309 1.7601,2.81412 2.1043,3.71448 2.3825,7.30015 4.29594,14.75035 6.656,22.05372 0.52918,-4.67259 0.29688,-9.44973 0.40568,-14.16478 0.14212,-23.62135 -0.67628,-47.2465 -0.0922,-70.86474 -0.10242,-1.56502 0.37581,-2.3638 0.56228,-0.37208 2.42683,16.13765 3.73079,32.41668 5.53277,48.63056 3.46887,33.14309 7.34493,66.24897 10.12184,99.46019 0.29469,3.37454 0.34179,6.82328 1.27622,10.09715 1.15534,0.66703 0.71038,-3.15639 1.08205,-4.14111 2.28117,-25.2507 3.24873,-50.59563 4.98778,-75.88548 0.44341,-9.78765 2.29652,-19.42804 3.65669,-29.1128 2.27359,-14.76678 4.45647,-29.55086 7.04138,-44.26692 0.0478,-1.34401 1.02835,-2.77404 1.20094,-0.62906 1.41354,7.43066 1.97857,14.9958 2.88073,22.50035 2.7095,25.05401 3.6462,50.35472 1.89357,75.51064 -0.9334,12.3421 -2.99789,24.5607 -4.40817,36.8512 -0.62834,5.61268 -1.51975,11.21304 -1.75218,16.85924 1.14429,-0.91981 1.83799,-4.19008 2.63719,-6.04673 1.27437,-3.50057 2.19568,-7.17834 4.02983,-10.44249 1.60393,-2.93458 3.82128,4.19383 4.58013,0.21697 9.18626,-36.40905 17.92542,-72.92941 26.78109,-109.41983 0.74873,-2.92403 1.40953,-5.87407 2.27486,-8.76625 1.62999,-0.54242 0.79338,3.25344 0.95447,4.50257 -0.67241,14.87042 -3.20137,29.62289 -3.23023,44.52637 -0.0486,6.07472 1.86915,12.25036 -0.0363,18.21944 -3.31076,10.92947 -6.80191,21.80819 -9.82971,32.82287 -2.16794,8.06658 -4.60407,16.0967 -5.98365,24.34542 -0.32477,3.66206 -0.99814,7.2882 -1.4196,10.93087 1.44001,0.0211 2.35447,-3.74477 3.31314,-5.31297 2.5813,-5.5467 4.51116,-11.41019 7.499,-16.75915 1.68086,-1.02807 0.57238,3.30534 0.6458,4.56227 -0.16477,1.85244 -0.32955,3.70489 -0.49432,5.55733 2.32788,-4.27773 4.75552,-8.51361 6.73545,-12.9616 5.789,-10.59283 11.76619,-21.08327 17.37738,-31.77336 5.8211,-10.81313 11.20827,-21.87441 17.56711,-32.38756 0.72108,-0.9758 1.50812,-1.90148 2.25744,-2.85583 -5.14903,12.56142 -11.50431,24.58066 -17.25163,36.87014 -6.68715,14.00307 -13.0641,28.15219 -19.49192,42.27475 -1.34572,2.2626 -1.09742,5.07898 0.9008,6.88339 2.25388,2.71181 3.18022,-2.15206 4.42719,-3.51712 9.31105,-15.90321 17.96548,-32.19242 27.68845,-47.85223 0.35069,-0.78313 1.87262,-2.31701 0.94021,-0.46857 -5.4909,11.44547 -11.56503,22.60217 -17.3742,33.88802 -5.61617,10.84689 -11.42324,21.60467 -16.61884,32.66225 -0.92764,2.34241 -4.53401,1.15421 -6.53734,1.67236 -5.90357,0.15655 -11.81021,0.0602 -17.71524,0.087 0.12829,1.62342 -0.52124,3.77242 1.19961,4.75783 3.68127,2.03697 8.07599,2.34312 11.74167,4.40485 2.07686,1.71163 0.70622,4.71704 -0.34437,6.65104 -4.66658,8.10647 -10.92617,15.16087 -17.3256,21.93142 -9.63648,9.92851 -18.35328,20.69862 -27.82034,30.78582 -6.33247,6.84939 -12.82049,13.58215 -18.5967,20.91563 -1.95285,2.54242 0.99527,5.01743 2.49153,6.879 2.86791,3.33001 5.17018,7.09161 8.08301,10.38591 10.31107,13.13895 20.12313,26.6592 30.16143,40.00581 8.75499,11.77381 17.45247,23.61861 25.14848,36.12224 1.32457,2.79282 4.42169,1.93802 6.88886,2.00428 7.97213,-0.0158 15.9437,0.0967 23.91545,0.15617 7.69873,10.22003 15.4473,20.40849 22.66418,30.97847 14.17856,19.71691 28.92367,39.03244 42.60421,59.10448 2.62677,3.79942 3.42517,8.47447 4.78247,12.8082 0.96189,3.92668 2.23016,7.84368 2.51153,11.89118 -1.70142,-0.089 -3.07038,-2.8717 -4.28554,-4.269 -11.78297,-16.23897 -23.69059,-32.38666 -35.70494,-48.45503 -6.80425,-9.2728 -13.34698,-18.73858 -20.45531,-27.78608 -6.22744,-7.99184 -12.17158,-16.20019 -17.804,-24.62192 -2.83447,-1.0239 -3.93045,3.27677 -2.01799,5.06651 3.71006,8.3026 5.71777,17.23528 9.08745,25.67284 2.87686,7.32742 6.36616,14.39675 9.39087,21.66429 6.727,15.74569 13.47307,31.49229 19.59176,47.48649 0.47664,0.9384 1.04205,3.3041 -0.15007,1.2404 -4.14151,-7.00633 -7.50061,-14.44031 -11.41422,-21.57391 -10.83258,-19.97126 -21.26431,-40.15539 -31.86924,-60.24753 -4.4449,-8.25343 -8.69269,-16.62733 -13.57209,-24.63542 -1.41608,-1.695 0.50858,2.34322 0.57006,3.06582 0.14836,1.50372 2.27152,5.0583 0.35604,5.39728 -1.38832,-0.0583 -4.17402,-3.18756 -4.71703,-1.85515 4.38057,12.62959 9.21189,25.09927 13.53845,37.74905 4.00933,11.66839 8.17193,23.29623 11.63981,35.13983 0.52618,2.51774 -2.94501,-0.86693 -3.87997,-1.37587 -1.15118,-0.59115 -3.85527,-3.70679 -4.31578,-2.65015 4.10067,19.98558 8.61895,39.88455 12.67788,59.87805 -0.0165,1.4322 1.38181,4.6189 0.26442,5.0816 -1.49092,-3.4792 -2.44797,-7.2043 -3.74173,-10.7765 -5.25931,-15.7547 -10.70914,-31.44442 -16.16477,-47.13144 -8.48763,-24.79007 -16.46033,-49.75572 -25.1613,-74.47245 -0.99246,-2.76455 -0.0597,1.8195 0.12335,2.76272 4.98413,24.68089 10.42153,49.26786 15.57415,73.91387 2.39659,11.75895 5.58965,23.3312 8.18254,35.046 -4.6e-4,1.7532 1.89526,4.838 0.62403,5.8813 -2.76383,-2.3917 -4.46848,-5.76 -6.44319,-8.7959 -4.58108,-7.5608 -8.55398,-15.4902 -11.71915,-23.74777 -1.64428,-4.02656 -3.439,-7.98814 -5.26599,-11.93426 -0.07,8.69444 0.65489,17.37253 1.01023,26.05593 0.75074,14.4812 1.49482,28.9649 2.44563,43.4337 0.11323,3.1714 -4.147,1.715 -6.10983,1.5681 -0.72526,-0.1472 -1.44924,-0.3191 -2.13995,-0.5889 z M 451,967.366 c -8.27145,-4.27338 -17.49125,-6.8078 -24.96052,-12.55302 -7.82629,-5.92088 -15.19538,-12.41917 -22.86412,-18.54034 -14.07973,-11.37718 -28.04217,-22.89957 -42.2528,-34.1139 -2.47738,-2.18612 -5.46585,-4.05862 -7.0749,-7.02969 -0.18299,-2.58931 -0.53105,-5.60792 -3.75083,-5.97784 -5.44836,-1.80366 -11.15858,-3.15537 -16.11687,-6.13806 -6.28393,-4.87431 -11.13514,-11.26272 -15.90037,-17.55525 -2.85683,-3.85386 -6.31614,-7.23696 -8.7942,-11.36843 -5.14856,-7.20805 -10.42275,-14.33403 -15.90762,-21.2894 -8.76655,-10.96426 -17.02161,-22.32816 -25.32981,-33.64084 -1.03341,-1.99226 -3.60161,-3.72188 -3.4447,-5.98398 2.34999,-4.19602 6.09049,-7.36541 9.15285,-11.01859 9.13055,-10.15086 18.31174,-20.25608 27.67056,-30.19721 7.83244,-8.52793 14.99814,-17.70112 23.67933,-25.41841 2.91689,-2.6857 6.09033,-5.21729 9.91869,-6.44932 4.34439,-1.84778 9.01795,-2.77523 13.35227,-4.62538 2.47015,-0.83313 2.22855,-5.59767 -0.8345,-5.04532 -2.80241,-0.20914 -5.74481,0.26014 -8.4302,-0.71867 0.44418,-2.11291 2.77915,-3.64419 4.49356,-4.9668 3.59879,-1.41607 6.55481,-4.08616 9.6944,-6.30343 1.72418,-1.05858 3.89333,-3.23185 5.52323,-3.3627 -1.9761,4.81391 -4.80257,9.21904 -7.26594,13.79276 11.28736,-9.80425 22.63153,-19.54302 34.00107,-29.25119 11.44555,-10.47128 23.74627,-19.9656 35.17458,-30.45387 2.89892,-3.14539 6.4106,-5.62545 9.73219,-8.29494 -3.21689,4.91556 -7.52189,8.96531 -11.46433,13.28184 -14.22069,15.08043 -28.78391,29.83268 -43.15928,44.76375 -0.85087,0.8425 -2.86647,3.0901 -0.5702,1.35575 16.44625,-11.61019 32.52469,-23.7326 48.66498,-35.76214 9.59986,-7.12063 19.00895,-14.49441 28.56851,-21.6668 0.9458,-0.91847 3.22209,-1.9238 1.41785,0.15483 -4.03413,4.76358 -9.035,8.58598 -13.71602,12.68377 -8.973,7.53545 -18.07057,14.93282 -26.68307,22.88383 -6.89932,5.89361 -14.10665,11.41951 -20.87587,17.4686 -9.65592,8.65871 -19.5786,17.01133 -29.53641,25.31826 -0.99517,1.31821 -4.97056,3.32439 -3.43039,4.8278 3.73425,0.15622 6.71335,-2.59621 10.24683,-3.25072 2.35937,-0.29304 5.27284,2.25316 3.27811,4.5473 -1.25976,2.06624 -2.84035,3.91057 -4.27674,5.85315 14.45359,-6.24381 28.64294,-13.08061 42.86058,-19.83907 3.31711,-1.46427 6.46709,-3.57726 10.07233,-4.22517 -0.82546,1.96652 -3.48982,3.51652 -5.13271,5.17172 -4.31773,3.77375 -9.16579,6.99268 -12.97959,11.3079 -0.32169,1.42216 2.91877,-0.10991 3.99103,-0.0323 4.70273,-0.78987 9.30693,-2.34641 14.09066,-2.53423 -0.9947,1.91996 -4.38731,2.86221 -6.40601,4.16268 -7.09064,3.96817 -14.11145,8.06536 -21.2862,11.88523 -8.30108,4.56758 -16.74092,8.87537 -25.12408,13.28597 -1.0159,0.63019 -5.61955,2.85412 -2.16688,2.61159 4.65716,-0.14829 9.24151,-1.57854 13.89612,-1.34232 -1.86056,1.73833 -4.39279,2.71065 -6.61841,3.96474 -4.35179,2.1834 -8.76913,4.3099 -12.73194,7.15644 -2.83905,1.68247 -5.90423,2.91961 -8.89422,4.29906 2.78979,0.13012 5.58794,0.11484 8.32387,-0.53879 13.95642,-2.52665 27.60691,-6.46899 41.49769,-9.29265 1.40979,1.08106 -3.11226,2.36454 -4.32156,2.94064 -6.15921,2.38453 -12.2738,4.8871 -18.5,7.10021 -2.6937,1.0857 -5.58084,1.89684 -8.04113,3.43234 5.0041,-0.63897 10.0308,-1.74085 15.04113,-2.57588 23.0607,-4.06676 46.13718,-8.05513 69.26131,-11.74499 3.19076,0.038 -2.64345,1.62518 -3.72373,1.91742 -18.89575,5.09598 -38.02758,9.25779 -57.09821,13.63622 -9.06849,2.1392 -18.26791,3.83985 -27.15501,6.67444 -1.37504,0.17918 -2.34879,1.51548 -0.28992,1.35502 8.7366,0.10234 17.43019,-1.05438 26.12933,-1.72879 6.60656,-0.51633 13.38908,-1.39585 19.87623,0.47983 8.87194,1.61312 17.89874,2.17546 26.87989,2.86603 8.45064,0.54282 16.90529,1.02471 25.35406,1.59623 -0.93531,2.25817 -1.84445,4.71456 -3.46986,6.56471 -2.90583,1.71685 -6.45975,1.59038 -9.7166,2.03453 -19.17648,1.4872 -38.39908,2.28341 -57.5928,3.51535 -12.15875,0.73279 -24.31879,1.46712 -36.45469,2.52175 22.54557,1.74808 44.98892,4.57847 67.45289,7.13008 18.36688,2.22164 36.76081,4.26597 55.06956,6.93485 2.85406,0.17274 4.44505,2.9814 5.72702,5.1884 2.13338,2.37959 0.19425,5.17779 -2.75612,5.07349 -5.62736,1.19169 -11.48544,1.22748 -17.01268,2.86287 -2.03046,1.83838 2.62607,3.09443 3.94557,4.09597 11.36167,5.90464 23.21486,10.7887 34.67917,16.47949 2.22025,1.3077 4.88524,2.22162 6.56203,4.23458 -1.74105,0.93285 -4.25264,-0.44991 -6.29185,-0.43487 -37.20243,-5.05975 -74.58509,-8.82357 -111.65735,-14.81844 -10.2527,-1.57068 -20.33368,-4.02393 -30.50001,-6.04027 -1.6999,-0.0542 -4.44536,-1.3459 -5.58291,-0.43804 2.40936,0.36291 3.9899,2.53834 6.3759,3.12654 18.40726,7.69937 37.28449,14.19708 55.87939,21.41876 6.94576,2.75686 14.03281,5.23198 20.71268,8.60422 2.70711,1.61972 4.24347,4.56558 6.19765,6.94767 0.6182,1.14828 2.62045,3.10972 2.27879,3.98723 -26.09883,-9.15199 -52.09832,-18.58746 -78.08957,-28.04057 -6.74868,-2.39127 -13.40313,-5.13143 -20.34621,-6.91748 -3.62023,-0.03 3.59584,2.43154 1.08788,4.18868 0.55098,2.20506 3.70743,3.04116 5.43819,4.42013 15.68978,9.02452 31.9032,17.09457 47.77545,25.78504 1.27987,0.82815 3.00778,1.5323 3.92442,2.59144 -9.05474,-2.3563 -17.6464,-6.24236 -26.69955,-8.61563 -0.0256,1.28865 3.12922,3.37516 4.38913,4.80786 6.81632,5.89753 13.2353,12.31477 18.51387,19.64664 4.45314,5.94791 9.07484,11.79939 13.00768,18.11069 0.47607,1.4524 -2.31537,-1.08674 -3.09318,-1.33306 -26.10588,-16.72861 -51.58772,-34.4052 -77.5177,-51.40072 -0.78469,-0.77532 -2.9774,-1.62064 -1.39972,0.14876 6.45364,6.30929 13.39578,12.1011 19.95924,18.29728 10.64635,9.90203 21.18093,19.92378 31.89239,29.75609 20.56444,19.39205 41.40508,38.48839 62.00077,57.84689 1.07425,1.52912 4.52015,3.28821 4.15525,4.75447 -1.24755,0.0788 -2.51477,-0.34867 -3.57807,-0.98032 z m -59.06305,-16.37464 c -16.24631,-18.19695 -32.99377,-35.93755 -49.49064,-53.90624 -0.28193,-0.50786 -1.82657,-1.56865 -1.30105,-1.72294 3.16416,0 6.32833,0 9.49249,0 14.41941,18.22015 29.06288,36.26681 43.12817,54.76371 1.74957,2.45588 3.74103,4.78882 5.07193,7.5066 -1.71819,-0.43829 -3.65128,-3.30609 -5.28277,-4.82912 -0.54458,-0.59933 -1.08379,-1.20354 -1.61813,-1.81201 z M 320.63077,709.11218 c 2.54292,-3.30612 5.064,-6.72295 8.23506,-9.46194 2.06101,-1.98197 5.38568,-0.6516 7.32015,-2.86835 4.61178,-4.4136 8.27807,-9.69653 12.47394,-14.49055 2.89371,-3.34963 5.68584,-6.78867 8.45931,-10.23155 2.70114,-2.01921 -0.28217,2.63422 -0.96795,3.57288 -7.83703,11.80588 -16.27183,23.19894 -24.50412,34.72951 -3.44098,-0.076 -6.9096,0.20433 -10.32592,-0.2713 -0.45422,-0.0291 -1.10658,-0.47229 -0.69047,-0.9787 z"
       id="path3040"
       style="fill:#000000" />
  </g>
</svg>
